<svg width="404" height="193" viewBox="0 0 937 459" fill="none" xmlns="http://www.w3.org/2000/svg">
<path d="M336.054 1.50861C334.321 2.17528 331.521 2.30861 329.788 1.90861C326.188 0.975276 312.321 4.70861 310.988 6.97528C310.454 7.90861 310.588 8.04194 311.521 7.50861C312.454 6.97528 313.121 7.24194 313.121 7.90861C313.121 8.70861 311.121 9.37528 308.854 9.50861C285.388 9.90861 284.054 10.0419 279.921 13.1086C277.654 14.7086 275.521 16.0419 275.121 16.0419C273.521 16.0419 263.788 20.7086 263.788 21.6419C263.788 22.1753 264.988 22.9753 266.588 23.3753C269.521 24.3086 269.388 26.5753 266.321 28.1753C265.254 28.7086 260.988 29.9086 256.721 30.8419C248.721 32.5753 246.188 34.3086 249.121 36.0419C250.054 36.5753 250.454 37.6419 249.921 38.4419C249.521 39.1086 251.254 41.3753 253.654 43.2419C257.654 46.3086 259.521 46.7086 268.721 46.7086C277.521 46.8419 279.654 47.2419 282.588 49.7753C284.588 51.3753 286.588 54.0419 287.121 55.6419C287.521 57.3753 288.588 58.7086 289.254 58.7086C289.921 58.7086 290.454 61.3753 290.454 64.5753C290.454 67.9086 291.121 70.9753 291.788 71.3753C292.588 71.7753 293.121 73.5086 293.121 75.2419C293.121 76.8419 293.921 78.9753 294.721 79.7753C295.654 80.7086 296.454 84.8419 296.454 88.9753C296.588 94.3086 297.254 96.8419 298.854 98.0419C300.054 98.9753 301.121 100.575 301.121 101.642C301.121 102.842 303.521 106.709 306.588 110.442C310.721 115.509 313.521 117.509 317.921 118.709C325.521 120.842 327.388 120.042 328.454 113.509C328.988 110.042 330.321 107.509 331.921 106.575C333.388 105.775 335.121 103.775 335.788 102.042C336.588 99.7753 338.454 98.5753 341.654 97.9086C345.121 97.3753 347.254 95.7753 349.254 92.5753C351.254 89.2419 353.521 87.7753 357.521 86.7086C369.254 83.6419 375.254 81.2419 378.854 78.1753C381.921 75.5086 382.454 74.0419 382.321 68.8419C382.054 63.1086 382.454 62.4419 388.588 56.7086C394.721 50.8419 394.988 50.4419 392.588 48.7086C390.588 47.1086 390.321 45.7753 390.988 41.3753C391.788 36.4419 391.521 36.0419 388.854 35.9086C385.921 35.9086 385.921 35.7753 388.454 34.7086C390.188 33.9086 390.454 33.5086 389.121 33.5086C387.921 33.3753 388.321 32.5753 390.454 31.1086L393.654 28.8419L390.588 28.0419C387.654 27.3753 388.054 26.8419 394.988 22.7086C407.921 14.7086 407.521 15.2419 404.454 12.8419C401.388 10.4419 392.988 10.0419 390.854 12.1753C388.854 14.1753 383.121 13.1086 383.121 10.7086C382.988 6.97528 381.121 5.64194 372.454 2.84194C363.254 -0.224724 342.054 -1.02472 336.054 1.50861Z" fill="#0E0924"/>
<path d="M389.788 4.04191C390.188 4.70858 391.121 5.37524 391.921 5.37524C392.588 5.37524 393.121 4.70858 393.121 4.04191C393.121 3.24191 392.188 2.70858 390.988 2.70858C389.921 2.70858 389.388 3.24191 389.788 4.04191Z" fill="#0E0924"/>
<path d="M239.121 5.24196C233.254 5.64196 227.521 6.57529 226.454 7.24196C225.388 8.04196 221.254 9.10863 217.121 9.77529C213.121 10.3086 208.321 11.1086 206.588 11.3753C201.121 12.1753 200.588 14.1753 204.721 17.9086C209.254 22.1753 206.054 22.842 200.721 18.7086C196.054 15.1086 191.254 15.3753 188.054 19.3753C184.988 23.242 185.654 28.042 189.254 28.042C190.588 28.042 193.121 29.5086 194.988 31.3753C197.388 33.7753 199.788 34.7086 203.654 34.7086C208.321 34.7086 208.854 34.9753 208.188 37.5086C207.654 39.642 206.721 40.042 204.321 39.5086C202.054 38.842 201.121 39.242 201.121 40.7086C201.121 42.9753 196.454 43.5086 195.121 41.3753C194.054 39.5086 185.521 39.642 184.321 41.5086C183.921 42.3086 181.921 42.7086 179.921 42.3086C175.254 41.3753 165.121 42.7086 165.121 44.3086C165.121 44.9753 167.121 46.3086 169.521 47.3753C172.054 48.442 174.854 50.1753 175.788 51.3753C176.988 52.7086 178.721 53.242 180.588 52.842C184.454 51.7753 187.788 53.1086 187.788 55.5086C187.788 57.642 185.654 58.042 184.454 56.042C184.054 55.242 182.188 54.7086 180.454 54.7086C176.588 54.7086 168.721 61.3753 170.054 63.3753C172.188 66.3086 179.654 70.7086 182.321 70.7086C186.721 70.7086 185.654 74.1753 180.321 77.242C177.654 78.842 175.254 79.9086 174.988 79.642C174.721 79.5086 175.388 77.642 176.454 75.642C178.188 72.1753 178.188 72.042 175.121 72.842C170.454 74.042 166.454 69.3753 166.454 62.842C166.454 56.042 162.721 54.442 156.988 58.5753C152.054 62.1753 147.254 62.1753 139.121 58.1753C126.321 52.042 113.121 50.7086 113.121 55.5086C113.121 56.5753 112.188 59.3753 110.988 61.642C108.854 65.642 108.988 65.9086 111.921 68.3086C117.254 72.5753 120.188 73.242 123.521 70.9753C126.321 69.242 126.721 69.242 128.454 71.5086C132.854 77.242 130.721 78.3086 119.788 76.042C109.654 73.7753 103.921 73.3753 102.988 74.842C102.454 75.642 101.654 75.7753 100.588 74.842C99.6545 74.042 96.7212 74.3086 92.0545 75.9086C88.3212 77.242 85.1212 77.7753 85.1212 77.242C85.1212 76.7086 81.5212 76.1753 77.1212 76.1753C72.5878 76.1753 67.9212 75.3753 66.1878 74.1753C60.8545 70.842 27.5212 67.7753 25.9212 70.5753C25.3878 71.242 22.5878 72.1753 19.5212 72.7086C13.6545 73.7753 4.45449 78.9753 3.25449 82.042C2.58783 83.9086 4.32116 85.7753 8.18783 87.1086C11.9212 88.442 10.8545 90.1753 5.12116 91.9086C-1.27884 93.7753 -1.54551 95.9086 3.78783 99.7753C8.32116 103.242 8.72116 104.842 5.65449 108.175C3.78783 110.175 3.78783 110.975 5.38783 114.175C6.32116 116.309 8.32116 118.575 9.92116 119.375C11.3878 120.042 13.6545 121.775 14.9878 123.109C16.3212 124.309 18.0545 125.375 18.9878 125.375C20.0545 125.375 21.5212 126.175 22.3212 127.242C23.6545 128.842 21.9212 130.175 12.5878 134.709C6.32116 137.642 0.854493 140.842 0.32116 141.642C-1.14551 143.909 2.72116 145.375 5.65449 143.642C9.78783 141.375 17.5212 138.709 20.0545 138.709C21.3878 138.709 24.3212 136.842 26.5878 134.575C30.0545 131.242 31.5212 130.575 34.8545 131.242C39.2545 132.175 42.4545 130.309 42.4545 126.709C42.4545 123.375 47.3878 120.575 55.3878 119.375C63.2545 118.309 70.5878 121.109 78.7212 128.309C81.5212 130.709 85.2545 133.775 87.2545 135.109C89.3878 136.709 90.4545 138.709 90.1878 140.442C89.7878 143.642 94.0545 149.375 96.7212 149.375C97.6545 149.375 98.4545 148.442 98.4545 147.242C98.4545 145.375 98.8545 145.375 100.454 146.709C101.521 147.642 102.454 149.375 102.454 150.709C102.454 151.909 104.854 155.109 107.654 157.775L112.988 162.709L112.854 175.775V188.842L118.454 197.109C121.654 201.642 124.988 205.375 125.921 205.375C127.921 205.375 134.454 212.975 134.454 215.375C134.454 216.309 135.121 217.375 135.788 217.642C136.588 217.909 137.388 219.509 137.788 221.375C138.188 223.242 139.121 224.975 139.788 225.109C140.588 225.375 141.788 226.309 142.454 227.242C150.988 237.775 154.454 239.375 154.454 232.975C154.588 230.175 154.721 230.309 157.788 234.042C159.654 236.175 161.121 239.242 161.121 240.709C161.121 242.175 161.654 244.042 162.188 244.709C165.254 248.975 181.921 256.042 188.854 256.042C191.388 256.042 194.854 257.242 196.721 258.709C198.588 260.175 201.254 261.375 202.721 261.375C204.054 261.375 208.454 264.575 212.454 268.575C218.988 274.842 220.454 275.775 224.588 275.509C230.054 274.975 232.454 273.375 227.521 273.375C222.721 273.375 219.121 268.842 219.521 263.109C219.921 257.242 217.921 254.709 212.988 254.709C209.788 254.709 209.121 254.175 209.121 251.642C209.121 249.909 209.788 247.909 210.588 247.109C211.388 246.309 211.788 244.309 211.521 242.575C211.254 240.042 210.188 239.242 206.454 238.975C202.721 238.709 201.521 239.109 200.454 241.642C199.388 244.042 198.054 244.709 193.788 244.709C186.854 244.709 184.721 240.975 185.788 230.975C186.721 221.375 188.988 219.242 198.321 219.642C203.254 219.909 206.321 219.375 207.788 218.042C209.521 216.442 210.854 216.442 214.854 217.642C217.521 218.442 219.788 219.909 219.788 220.842C219.788 223.642 226.454 230.709 229.121 230.709C230.454 230.709 232.054 231.242 232.454 232.042C233.788 234.309 237.121 233.509 237.121 230.975C237.121 229.109 237.654 229.375 239.788 232.042C243.254 236.575 243.254 232.975 239.654 227.242C237.788 224.042 235.921 222.709 233.654 222.709C231.254 222.709 230.054 221.509 228.721 218.309C226.321 212.709 226.721 211.909 234.188 206.575C240.988 201.775 242.588 200.042 241.654 198.442C239.788 195.509 249.921 182.842 254.188 182.709C254.988 182.709 255.788 181.242 255.788 179.375C255.788 175.509 255.254 175.775 265.788 175.509C271.788 175.242 274.988 174.442 278.721 171.909C281.521 170.175 283.788 168.309 283.788 167.909C283.788 165.642 278.988 163.509 274.988 163.909C270.854 164.175 270.454 163.909 270.454 160.842C270.454 158.042 271.121 157.375 273.654 157.375C275.521 157.375 277.254 156.842 277.788 156.175C278.188 155.375 280.321 154.042 282.454 152.842C286.188 150.975 286.454 151.109 286.454 153.509C286.454 154.975 285.521 156.442 284.454 156.842C281.654 157.909 281.921 162.575 284.854 163.509C286.054 163.909 288.188 164.842 289.388 165.509C293.121 167.509 301.121 166.975 301.921 164.709C302.988 162.175 298.188 154.042 295.654 154.042C294.321 154.042 293.921 152.575 294.054 148.709C294.454 142.709 291.121 137.909 284.721 135.109C282.721 134.175 280.454 131.909 279.788 130.175C279.121 128.442 277.921 126.575 277.254 126.042C276.454 125.642 275.788 124.175 275.788 122.975C275.788 121.775 274.321 119.242 272.454 117.642C269.521 114.842 268.988 114.709 267.121 116.442C266.054 117.642 265.121 119.109 265.121 119.909C265.121 120.709 263.654 121.375 261.788 121.375C259.921 121.375 258.454 120.709 258.454 120.042C258.454 119.242 259.388 118.709 260.454 118.709C261.521 118.709 262.454 117.775 262.454 116.575C262.454 115.242 261.654 114.709 260.454 115.242C259.388 115.642 258.454 115.375 258.454 114.709C258.454 113.909 257.254 113.375 255.654 113.375C254.188 113.375 251.388 112.175 249.521 110.709C247.254 108.975 244.054 108.042 240.321 108.042H234.454V113.775C234.454 116.975 233.788 120.175 232.988 120.975C231.921 122.042 232.054 123.242 233.654 125.509C236.454 129.509 236.321 131.109 233.521 130.175C229.788 128.975 227.921 130.975 228.188 135.909C228.454 141.242 225.788 142.975 224.588 138.042C224.054 135.909 222.854 134.709 221.121 134.709C218.454 134.709 217.521 134.309 209.521 130.175C207.254 128.975 204.188 128.042 202.854 128.042C199.788 128.042 193.121 120.709 193.121 117.375C193.121 116.042 195.788 112.709 199.121 110.042C204.721 105.375 205.521 105.109 211.254 106.042C214.588 106.442 217.654 107.775 218.054 108.842C219.121 111.775 222.721 110.975 226.854 106.709L230.721 102.842L226.188 98.9753L221.788 94.9753L224.854 91.7753C226.454 89.9086 227.788 87.242 227.788 85.642C227.788 83.3753 228.588 82.7086 231.121 82.7086C232.988 82.7086 234.454 81.9086 234.454 80.9753C234.454 79.9086 234.854 80.042 235.654 81.3753C236.454 82.442 236.588 83.7753 236.188 84.3086C235.921 84.9753 236.188 86.3086 237.121 87.242C238.188 88.7086 239.388 88.842 242.454 87.642C247.654 85.642 248.721 87.1086 245.254 91.7753C243.388 94.442 241.388 95.642 238.988 95.642C237.121 95.642 234.988 96.3086 234.188 97.1086C231.788 99.5086 234.454 101.375 240.454 101.375C244.854 101.375 246.721 102.042 248.188 104.042C250.054 106.709 263.388 111.909 268.321 112.042C270.454 112.042 270.721 111.242 270.188 105.642C269.521 99.5086 269.788 99.1086 274.721 95.5086C280.321 91.5086 280.988 89.7753 277.521 88.442C276.188 87.9086 274.854 87.242 274.454 86.842C274.054 86.442 272.054 85.1086 269.788 84.042C267.654 82.842 265.921 81.5086 266.188 80.9753C267.654 77.242 255.388 66.7086 249.521 66.7086C248.454 66.7086 244.854 64.5753 241.521 62.042C235.521 57.5086 235.388 57.3753 221.654 57.5086C208.454 57.5086 207.788 57.642 205.121 60.9753C203.654 62.842 202.454 65.7753 202.454 67.5086C202.454 71.3753 206.854 76.042 210.454 76.042C212.454 76.042 213.121 76.9753 213.121 79.3753C213.121 83.1086 211.521 83.642 209.254 80.842C208.454 79.7753 206.054 78.3086 203.921 77.5086C201.921 76.5753 198.988 73.642 197.388 70.7086L194.588 65.3753L198.588 62.5753C203.388 59.242 202.988 57.242 197.521 55.7753C194.188 54.9753 193.388 54.042 193.654 51.3753C193.788 47.3753 194.454 47.242 197.388 50.5753C199.388 52.9753 207.121 54.1753 222.721 54.7086C227.521 54.842 231.788 52.042 231.788 48.842C231.788 47.9086 232.988 46.042 234.321 44.842C235.788 43.5086 236.588 41.5086 236.188 40.042C235.654 38.1753 236.454 37.1086 238.854 36.1753C240.588 35.5086 243.388 33.1086 244.988 30.842C246.588 28.7086 249.121 26.442 250.588 26.042C252.188 25.5086 254.588 23.9086 256.054 22.442C257.388 21.1086 261.121 18.7086 264.188 17.242C267.254 15.9086 271.788 13.642 274.188 12.1753L278.454 9.64196L275.521 7.77529C271.788 5.37529 254.188 4.17529 239.121 5.24196ZM213.788 160.442C217.121 162.975 215.121 165.775 210.588 164.709C205.788 163.509 204.054 161.509 206.454 160.042C209.254 158.309 210.854 158.442 213.788 160.442Z" fill="#0E0924"/>
<path d="M586.454 11.6419C585.388 12.0419 582.854 13.5086 580.854 14.9753C578.721 16.4419 576.588 17.1086 575.788 16.7086C575.121 16.3086 574.454 16.5753 574.454 17.5086C574.454 18.5753 573.921 18.5753 572.854 17.7753C569.788 15.3753 558.854 14.8419 555.788 16.9753C551.788 19.7753 552.454 22.4419 557.521 23.2419C565.254 24.3086 577.788 23.7753 578.854 22.1753C579.654 21.1086 580.188 21.1086 580.721 22.3086C580.988 23.2419 582.588 24.0419 583.921 24.0419C585.388 24.0419 587.788 24.5753 589.121 25.3753C590.988 26.3086 592.188 26.1753 593.654 24.7086C594.721 23.6419 597.121 22.7086 598.988 22.7086C600.854 22.7086 602.454 22.0419 602.454 21.3753C602.454 20.5753 603.654 20.0419 605.121 20.0419C606.854 20.0419 607.788 20.9753 607.788 22.7086C607.788 24.1753 608.454 25.3753 609.121 25.3753C612.454 25.3753 607.654 15.6419 603.388 13.7753C600.854 12.5753 599.388 12.8419 596.321 14.8419C591.254 18.1753 590.188 18.0419 591.254 14.0419C592.054 10.5753 590.854 10.0419 586.454 11.6419Z" fill="#0E0924"/>
<path d="M671.121 16.0419C670.721 16.7086 671.521 17.3752 673.121 17.3752C674.721 17.3752 675.521 16.7086 675.121 16.0419C674.721 15.2419 673.788 14.7086 673.121 14.7086C672.454 14.7086 671.521 15.2419 671.121 16.0419Z" fill="#0E0924"/>
<path d="M677.254 18.842C674.988 21.1086 673.121 23.3753 673.121 23.9086C673.121 25.642 682.588 29.242 689.254 30.1753C695.121 30.9753 695.521 30.842 696.321 27.242C697.121 24.3086 696.454 22.842 692.988 19.242C687.388 13.3753 682.721 13.242 677.254 18.842Z" fill="#0E0924"/>
<path d="M482.988 20.9752C480.855 22.0419 476.455 22.9752 473.121 22.8419C469.655 22.7086 465.921 23.5086 464.455 24.5752C461.921 26.3086 462.055 26.5752 465.388 30.8419C469.121 35.7752 478.588 45.3752 479.788 45.3752C481.521 45.2419 483.521 43.1086 485.655 38.9752C487.921 34.5752 490.455 33.2419 490.455 36.4419C490.455 37.5086 491.921 39.1086 493.788 40.0419C498.188 42.4419 503.788 39.7752 503.788 35.1086C503.788 32.4419 504.455 32.0419 509.255 32.0419C512.455 32.0419 514.321 31.5086 513.788 30.7086C513.388 29.9086 511.788 29.3752 510.321 29.3752C507.388 29.3752 507.121 27.9086 509.388 25.6419C514.588 20.4419 491.521 16.4419 482.988 20.9752Z" fill="#0E0924"/>
<path d="M409.788 21.3753C409.388 22.042 409.521 22.7086 410.321 22.7086C410.988 22.7086 412.054 22.042 412.454 21.3753C412.854 20.5753 412.721 20.042 411.921 20.042C411.254 20.042 410.188 20.5753 409.788 21.3753Z" fill="#0E0924"/>
<path d="M176.588 22.5752C175.388 24.5752 179.654 27.3752 181.388 25.6419C182.054 24.9752 182.321 23.6419 181.921 22.8419C180.721 21.1086 177.521 20.9752 176.588 22.5752Z" fill="#0E0924"/>
<path d="M617.788 24.0419C617.388 24.7086 617.921 25.3752 619.121 25.3752C620.321 25.3752 620.855 24.7086 620.455 24.0419C620.055 23.2419 619.388 22.7086 619.121 22.7086C618.855 22.7086 618.188 23.2419 617.788 24.0419Z" fill="#0E0924"/>
<path d="M451.788 27.3752C451.788 28.4419 452.455 29.3752 453.121 29.3752C453.921 29.3752 454.455 28.4419 454.455 27.3752C454.455 26.3086 453.921 25.3752 453.121 25.3752C452.455 25.3752 451.788 26.3086 451.788 27.3752Z" fill="#0E0924"/>
<path d="M612.455 26.7086C612.055 27.3753 612.588 28.0419 613.788 28.0419C614.988 28.0419 615.521 27.3753 615.121 26.7086C614.721 25.9086 614.055 25.3753 613.788 25.3753C613.521 25.3753 612.855 25.9086 612.455 26.7086Z" fill="#0E0924"/>
<path d="M698.588 30.8419L695.521 36.3086L699.654 35.5086C701.921 35.1086 705.521 34.3086 707.788 33.9086C713.521 32.8419 713.788 31.1086 708.854 28.0419C702.854 24.4419 702.054 24.5753 698.588 30.8419Z" fill="#0E0924"/>
<path d="M162.054 27.5086C160.454 29.2419 165.521 34.7086 168.721 34.7086C170.454 34.7086 171.521 35.2419 171.121 36.0419C169.921 38.0419 177.921 37.6419 179.654 35.6419C180.721 34.1752 180.588 33.2419 178.721 31.7752C174.588 28.1752 164.054 25.5086 162.054 27.5086Z" fill="#0E0924"/>
<path d="M142.854 32.7086L137.121 35.7753L141.654 37.9086C147.121 40.4419 152.454 39.1086 153.788 34.8419C155.654 28.7086 151.654 28.0419 142.854 32.7086Z" fill="#0E0924"/>
<path d="M182.455 32.5752C182.455 35.2419 185.121 36.9752 190.855 38.0419C194.188 38.7086 195.788 38.5752 195.788 37.5086C195.788 36.7086 194.588 36.0419 193.121 36.0419C191.655 36.0419 190.455 35.2419 190.455 34.1752C190.455 33.2419 189.121 32.0419 187.521 31.5086C183.121 30.4419 182.455 30.4419 182.455 32.5752Z" fill="#0E0924"/>
<path d="M395.788 33.5086C395.788 34.1753 396.455 34.4419 397.121 34.0419C397.921 33.6419 398.455 32.9753 398.455 32.5753C398.455 32.3086 397.921 32.0419 397.121 32.0419C396.455 32.0419 395.788 32.7086 395.788 33.5086Z" fill="#0E0924"/>
<path d="M635.788 34.0419C635.788 35.1086 636.988 36.0419 638.455 36.0419C639.921 36.0419 641.121 35.1086 641.121 34.0419C641.121 32.9753 639.921 32.0419 638.455 32.0419C636.988 32.0419 635.788 32.9753 635.788 34.0419Z" fill="#0E0924"/>
<path d="M161.388 37.6419C161.788 38.5752 162.988 39.5086 164.188 39.7752C165.788 40.0419 166.188 39.6419 165.654 38.1752C164.721 35.6419 160.588 35.2419 161.388 37.6419Z" fill="#0E0924"/>
<path d="M813.121 37.3753C813.121 38.042 813.788 38.7086 814.454 38.7086C815.254 38.7086 815.788 38.042 815.788 37.3753C815.788 36.5753 815.254 36.042 814.454 36.042C813.788 36.042 813.121 36.5753 813.121 37.3753Z" fill="#0E0924"/>
<path d="M120.321 41.5086C116.188 45.9086 116.321 46.7086 121.121 46.7086C123.388 46.7086 125.121 47.2419 125.121 47.7752C125.121 48.9752 132.988 52.0419 136.188 52.0419C137.521 52.0419 139.654 52.7086 140.988 53.6419C143.388 55.1086 152.321 53.2419 161.788 49.3752C164.321 48.4419 164.321 48.3086 161.121 46.9752C159.254 46.3086 156.988 44.7086 156.054 43.6419C154.188 41.3752 150.721 41.3752 149.388 43.6419C148.321 45.3752 141.121 44.3086 141.121 42.5752C141.121 41.9086 140.321 41.3752 139.254 41.3752C138.188 41.3752 136.988 40.4419 136.588 39.3752C135.254 35.9086 124.321 37.2419 120.321 41.5086Z" fill="#0E0924"/>
<path d="M696.588 40.7086C693.921 42.842 690.455 44.042 685.255 44.442C674.321 45.5086 661.121 48.1753 661.121 49.5086C661.121 50.1753 660.188 50.7086 658.988 50.7086C657.388 50.7086 656.988 51.642 657.388 54.042C658.055 56.9753 657.655 57.242 653.655 57.1086C648.455 56.9753 645.121 59.242 646.055 62.442C646.455 64.3086 645.655 64.842 640.855 64.842C637.655 64.9753 634.721 64.442 634.321 63.642C633.788 62.842 632.188 63.5086 630.321 65.242L627.121 68.1753L626.721 65.1086C626.188 61.5086 622.721 57.3753 620.321 57.3753C619.255 57.3753 617.521 59.242 616.321 61.642C615.121 64.042 613.255 66.7086 612.321 67.7753C610.055 70.042 609.921 76.3086 612.055 78.442C614.721 81.1086 610.721 80.442 605.655 77.242C603.121 75.7753 599.788 74.7086 598.188 74.842C596.455 75.1086 594.321 74.842 593.521 74.3086C591.121 72.842 589.121 74.3086 589.121 77.5086C589.121 79.3753 588.188 80.042 585.521 80.1753C583.388 80.1753 578.988 80.442 575.521 80.7086C571.388 80.842 569.388 80.5753 569.521 79.5086C569.655 78.7086 568.055 78.042 565.788 78.042C562.455 78.042 561.655 78.7086 560.988 82.042C560.455 84.1753 560.055 85.242 559.921 84.3086C559.921 83.5086 558.988 82.7086 557.921 82.7086C556.855 82.7086 554.988 81.7753 553.788 80.5753C550.055 76.842 547.655 79.242 548.588 85.642C549.255 90.9753 549.121 91.242 547.255 88.842C546.055 87.3753 545.121 85.7753 545.121 85.3753C545.121 84.3086 530.321 77.3753 528.188 77.3753C527.255 77.3753 523.388 75.5086 519.388 73.3753C511.921 69.3753 500.855 67.7753 499.121 70.5753C498.721 71.3753 495.521 72.3086 492.055 72.842C488.588 73.3753 484.321 74.842 482.588 76.1753C480.855 77.642 478.721 78.7086 477.788 78.7086C475.388 78.7086 469.788 84.042 469.655 86.442C469.521 87.7753 469.388 90.042 469.255 91.5086C469.121 94.442 461.655 102.709 459.255 102.709C458.455 102.709 455.655 104.575 453.121 106.575C449.255 109.909 448.455 111.242 448.588 115.642C448.855 123.509 451.121 126.975 455.521 125.909C457.521 125.375 459.655 124.442 460.321 123.909C462.988 121.509 466.188 122.842 467.655 126.842C469.521 132.442 469.521 133.375 467.121 133.375C466.055 133.375 465.121 132.175 465.121 130.842C465.121 126.575 462.721 126.309 458.988 130.042C456.455 132.575 455.788 134.309 456.321 136.842C456.988 139.375 456.721 140.042 454.721 140.042C453.255 140.042 450.588 141.509 448.588 143.375C445.655 146.042 444.855 146.309 444.321 144.709C443.788 143.642 442.721 142.709 441.921 142.709C439.788 142.709 434.455 133.242 434.455 129.642C434.455 128.042 433.655 126.309 432.855 125.775C431.921 125.242 431.121 123.775 431.121 122.709C431.121 120.309 424.855 120.575 420.055 122.975C417.521 124.309 416.988 125.375 417.521 128.709C418.055 131.775 417.388 133.509 415.121 135.775C413.521 137.375 411.521 138.709 410.855 138.709C410.055 138.709 409.521 141.509 409.388 144.842V150.842L416.855 149.909C423.521 149.109 424.188 149.242 422.855 150.975C420.721 153.375 421.921 154.709 425.921 154.709C430.055 154.709 431.255 157.109 427.521 157.642C422.988 158.309 423.121 161.775 427.788 164.309C430.588 165.909 431.788 167.642 431.788 170.042C431.788 173.242 431.388 173.375 424.588 173.375C414.188 173.375 413.121 174.042 413.121 180.575C413.121 183.642 412.455 186.842 411.788 187.509C410.055 189.242 413.921 197.375 416.455 197.375C420.188 197.375 419.655 200.042 415.121 204.575C412.321 207.509 410.455 210.575 410.455 212.575C410.455 216.042 403.788 221.909 402.855 219.375C402.188 217.242 390.455 218.709 390.455 220.842C390.455 222.175 392.055 222.709 395.788 222.709H400.988L396.988 228.709C393.121 234.309 392.855 235.642 392.455 248.975L392.055 263.109L397.255 268.709C400.188 271.775 402.455 274.842 402.455 275.642C402.455 276.309 405.121 278.842 408.455 281.109C413.921 284.975 415.388 285.375 423.521 285.109C428.455 284.975 434.321 284.175 436.721 283.109C443.121 280.575 448.721 280.842 450.455 284.042C451.521 285.909 452.721 286.575 454.855 286.042C459.121 284.975 461.521 289.242 459.655 294.575C458.321 298.309 458.721 299.375 462.988 305.242C469.121 313.509 472.455 325.109 469.788 328.042C468.721 329.109 467.521 333.109 467.121 336.709C466.455 342.309 466.855 344.442 469.655 350.042C471.521 353.642 473.121 357.642 473.121 358.709C473.121 361.109 477.388 372.309 480.321 378.042C481.521 380.175 482.455 383.375 482.455 384.975C482.455 389.642 487.655 392.309 493.121 390.709C495.655 389.909 499.121 389.375 500.855 389.375C508.855 389.375 521.655 377.909 523.388 368.975C523.788 366.975 524.988 365.375 525.921 365.375C528.588 365.375 530.455 360.842 530.455 354.442C530.455 349.775 531.255 347.775 534.188 344.975C536.188 342.975 538.455 341.375 539.255 341.375C539.921 341.375 541.521 339.775 542.988 337.909C544.855 335.242 545.255 333.242 544.455 328.309C543.921 324.842 542.988 320.975 542.188 319.509C541.388 318.175 541.255 314.442 541.788 310.975C542.588 306.042 544.055 303.642 550.455 297.242C554.721 292.842 558.721 289.375 559.388 289.375C561.388 289.375 571.788 270.309 571.788 266.842C571.788 263.775 571.521 263.642 563.655 264.575C556.455 265.242 555.655 265.109 557.121 263.375C558.055 262.309 559.788 261.375 560.988 261.375C562.188 261.375 564.321 260.442 565.655 259.375C567.121 258.309 569.255 257.375 570.588 257.375C571.788 257.375 573.121 256.575 573.521 255.509C573.921 254.575 576.055 253.375 578.321 252.975C586.455 251.375 596.588 236.975 591.788 234.042C588.321 231.909 591.255 230.709 599.521 230.709H608.588L614.855 237.375C618.321 240.975 621.655 244.042 622.321 244.042C622.988 244.042 624.055 245.909 624.455 248.309C624.988 250.709 626.588 254.975 628.055 258.042C635.655 273.909 636.588 275.375 639.121 275.375C640.588 275.375 642.588 276.709 643.521 278.309C645.255 281.509 647.255 282.042 650.188 280.175C651.655 279.242 651.521 278.042 649.255 273.642C645.655 266.575 646.588 257.775 651.388 253.909C653.255 252.575 656.055 250.042 657.788 248.309C659.388 246.709 661.255 245.375 661.788 245.375C662.321 245.375 663.521 244.575 664.321 243.509C665.121 242.442 667.655 241.242 669.921 240.709C673.521 240.042 674.455 240.442 677.521 244.442C679.388 246.842 681.121 250.309 681.388 252.175C681.655 254.709 682.588 255.375 685.388 255.375C690.721 255.375 691.655 257.109 692.055 267.375C692.455 275.509 692.855 276.842 695.388 278.042C696.988 278.709 698.588 280.575 698.988 282.175C699.921 285.509 704.855 292.042 706.588 292.042C707.255 292.042 707.788 289.775 707.788 286.975C707.788 282.709 706.855 280.975 703.121 277.642C697.921 272.842 695.921 267.375 698.321 264.975C699.655 263.775 701.121 264.709 704.855 269.109C709.921 274.975 712.721 276.042 713.921 272.709C714.321 271.642 715.921 270.442 717.255 270.042C718.721 269.509 720.855 267.775 721.921 265.909C723.788 263.242 723.788 262.042 722.455 258.309C721.521 256.042 719.121 252.309 717.255 250.309C714.588 247.375 714.188 246.175 715.255 244.442C717.655 240.575 719.388 241.109 718.721 245.509C718.188 249.375 718.321 249.509 721.921 249.109C724.855 248.842 725.921 247.909 726.188 245.375C726.588 242.042 731.255 238.709 735.655 238.709C736.855 238.709 739.255 237.509 741.121 236.042C745.388 232.709 747.255 232.709 748.188 236.175C749.255 240.309 753.521 238.842 754.988 233.642C755.921 230.309 755.655 228.842 754.055 226.975C752.188 224.975 752.188 224.442 754.588 221.509C757.921 217.375 757.788 213.909 753.788 206.842C751.921 203.775 750.455 200.842 750.455 200.575C750.455 200.309 752.321 199.242 754.455 198.042C758.855 195.775 759.788 193.375 756.321 193.375C754.455 193.375 754.455 192.975 755.788 191.375C757.921 188.842 759.788 188.842 759.788 191.375C759.788 192.442 760.988 193.909 762.455 194.709C764.321 195.642 765.121 197.509 765.121 200.709V205.109L769.255 203.109C774.455 200.442 775.255 198.175 772.721 192.709C770.721 188.442 770.721 188.309 774.988 183.642C778.321 180.042 780.055 178.975 782.321 179.642C784.721 180.309 786.855 178.709 793.255 172.175C797.655 167.642 800.988 163.509 800.588 162.975C800.188 162.309 800.455 158.309 800.988 154.042C802.321 144.175 801.655 141.375 797.788 141.375C796.055 141.375 793.388 140.309 791.788 138.975L788.855 136.575L795.921 130.175C804.721 122.175 810.588 119.509 816.721 120.709C819.655 121.242 822.055 120.975 823.255 119.909C824.855 118.575 826.321 118.575 830.055 119.909C834.588 121.642 834.855 121.509 840.321 116.175C846.055 110.575 850.855 109.242 852.721 112.575C854.188 115.242 860.321 115.642 863.121 113.375C865.388 111.509 865.521 111.642 864.721 113.642C863.921 115.775 864.855 115.909 873.255 115.509C878.321 115.242 883.255 114.442 884.055 113.642C884.988 112.709 886.321 112.042 887.121 112.042C887.788 112.042 886.721 113.242 884.455 114.709C881.788 116.442 879.255 117.109 876.855 116.575C874.988 116.175 872.988 116.575 872.455 117.242C872.055 118.042 869.655 118.709 867.388 118.709C862.321 118.709 859.388 122.442 860.588 127.242C861.121 129.509 860.455 131.375 858.588 133.242C856.721 135.109 855.788 135.375 855.788 134.309C855.788 133.242 856.188 132.042 856.855 131.509C858.055 130.309 858.188 118.709 856.988 118.709C856.455 118.709 855.388 119.642 854.455 120.709C853.521 121.909 852.455 122.442 852.055 122.175C850.855 120.975 843.788 126.842 841.921 130.442C840.455 133.242 840.455 135.642 841.521 141.775C842.721 148.575 842.588 149.642 840.588 151.109C839.255 152.175 838.455 154.042 838.721 155.775L839.121 158.709L842.988 155.375C845.121 153.642 847.788 151.775 849.121 151.375C852.321 150.309 859.788 140.709 859.788 137.642C859.788 136.175 860.721 134.709 861.788 134.175C862.988 133.775 863.788 131.775 863.788 129.509C863.788 127.375 864.588 125.375 865.788 124.842C866.855 124.442 867.788 123.242 867.788 122.175C867.788 119.909 875.921 117.775 878.455 119.375C879.255 119.909 880.588 119.642 881.521 118.975C882.455 118.309 884.588 117.242 886.455 116.709C888.321 116.175 891.921 114.442 894.455 112.975C896.988 111.375 900.188 110.175 901.788 110.042C903.921 110.042 904.588 108.975 904.855 105.375C905.388 99.5086 908.188 97.1086 912.588 98.7086C914.321 99.3753 915.788 99.642 915.788 99.242C915.788 98.9753 916.988 99.242 918.455 100.042C921.655 101.775 926.455 100.575 926.455 98.042C926.455 97.1086 927.655 96.042 929.121 95.642C930.588 95.242 931.788 94.3086 931.788 93.5086C931.788 91.7753 924.721 88.042 921.388 88.042C919.921 88.042 918.055 87.1086 917.121 86.042C916.188 84.9753 914.721 84.042 913.788 84.042C912.988 84.042 909.388 82.1753 905.921 79.9086C901.121 76.7086 897.788 75.5086 892.055 75.242C881.255 74.5753 881.655 74.5753 869.121 75.242C862.455 75.7753 858.855 75.5086 860.455 74.842L863.121 73.7753L860.455 72.9753C853.521 70.9753 842.188 69.642 837.921 70.3086C834.055 70.842 832.055 70.3086 828.055 67.642C823.788 64.7086 821.388 64.1753 811.521 63.7753C801.388 63.3753 799.655 63.642 798.055 65.9086C796.455 68.042 794.988 68.3086 788.321 67.7753C782.588 67.242 780.055 67.5086 778.721 68.842C776.321 71.3753 774.455 70.042 774.455 65.642C774.455 59.7753 772.588 58.3086 764.588 57.642C758.588 57.1086 756.988 57.5086 756.321 59.242C755.255 61.9086 750.055 62.042 747.788 59.3753C746.721 58.1753 743.788 57.3753 739.788 57.3753C734.321 57.3753 733.255 56.9753 732.721 54.442C732.188 52.842 732.455 50.842 733.255 49.9086C736.455 45.9086 731.255 42.442 718.855 40.5753C715.655 40.042 713.121 39.242 713.121 38.5753C713.121 37.9086 710.321 37.3753 706.855 37.3753C702.188 37.5086 699.388 38.3086 696.588 40.7086ZM499.788 97.3753C499.788 98.042 498.055 100.575 495.921 103.109C492.588 106.842 492.188 108.175 492.988 112.042L493.921 116.709L502.321 116.442C508.188 116.309 510.455 116.709 510.055 117.775C509.655 119.109 507.121 119.775 494.988 121.642C493.655 121.775 492.055 125.775 489.788 134.175C489.388 135.642 479.788 137.642 478.588 136.575C477.655 135.775 481.655 131.775 484.721 130.575C488.588 129.109 488.721 125.375 484.988 125.375C482.455 125.375 482.455 125.242 484.321 123.242C486.721 120.975 487.255 116.042 485.121 116.042C482.321 116.042 483.921 109.109 487.255 106.042C489.255 104.175 491.255 102.709 491.655 102.709C492.188 102.709 493.655 100.842 494.988 98.7086C497.121 95.1086 499.788 94.3086 499.788 97.3753ZM569.121 169.242L565.921 171.775L569.521 176.975C571.521 179.909 573.121 183.242 573.121 184.575C573.121 185.775 573.655 187.909 574.321 189.242C576.321 192.709 574.055 195.242 569.788 194.175C566.455 193.375 566.321 192.842 566.988 188.575C567.655 185.242 567.255 182.975 565.388 180.309C560.988 173.909 560.721 171.775 564.055 169.109C565.788 167.775 568.321 166.709 569.788 166.709C572.188 166.709 572.188 166.975 569.121 169.242ZM521.788 171.509C523.921 172.842 526.321 173.375 528.455 172.842C530.321 172.309 533.121 172.709 534.721 173.642C537.921 175.509 542.455 179.642 542.455 180.709C542.455 182.042 533.655 181.242 530.721 179.509C528.321 178.309 525.788 178.175 520.321 179.109C516.321 179.909 512.721 180.175 512.321 179.642C511.255 178.709 515.788 169.375 517.255 169.375C518.055 169.375 520.055 170.309 521.788 171.509ZM457.655 184.042C456.855 190.575 456.855 190.709 460.321 190.709C463.921 190.709 464.455 189.375 463.921 182.842C463.655 179.642 463.655 179.642 467.388 182.042C474.188 186.309 476.455 190.709 471.788 190.709C467.521 190.709 468.455 195.509 472.988 197.109C476.588 198.309 477.121 198.042 480.988 193.242C485.655 187.509 487.388 186.842 488.721 190.309C489.921 193.909 500.055 204.042 502.321 204.042C503.388 204.042 505.255 203.242 506.321 202.175C507.521 201.242 510.988 200.042 514.188 199.642C519.121 199.109 519.788 199.242 519.788 201.642C519.788 203.909 520.455 204.175 523.788 203.375C526.055 202.842 527.788 202.975 527.788 203.642C527.521 209.642 514.455 211.909 502.188 208.042C493.521 205.375 490.988 205.642 487.788 209.642C485.788 212.042 485.521 212.042 479.388 208.709C475.788 206.842 471.788 205.375 470.321 205.375C468.321 205.375 467.788 204.442 467.788 200.975C467.788 193.375 466.721 192.975 453.655 194.042C447.121 194.575 440.455 195.509 438.855 196.175C437.121 196.842 435.788 196.975 435.788 196.442C435.788 194.309 440.455 190.709 443.121 190.709C444.721 190.709 447.121 189.509 448.321 188.175C450.588 185.775 450.455 185.509 447.921 184.709C445.655 184.042 445.388 183.509 446.721 181.375C448.188 179.109 450.321 178.309 456.855 177.509C458.188 177.375 458.321 178.975 457.655 184.042ZM533.521 230.842C535.388 233.509 537.388 237.242 537.921 239.242C538.455 241.242 539.655 243.242 540.588 243.642C542.721 244.442 549.521 257.375 548.455 258.442C545.655 261.242 533.255 246.842 533.121 240.575C533.121 239.109 532.455 237.242 531.521 236.309C530.721 235.509 529.788 233.642 529.655 232.442C529.521 231.109 528.855 228.575 528.321 226.709C527.255 222.975 528.188 223.642 533.521 230.842Z" fill="#0E0924"/>
<path d="M596.188 39.7752C594.588 40.0419 591.521 41.9086 589.255 44.1752C586.988 46.3086 584.588 48.0419 583.921 48.0419C583.255 48.0419 581.521 50.1752 579.921 52.7086C578.455 55.2419 576.721 57.3752 575.921 57.3752C574.721 57.3752 570.455 65.3752 570.455 67.9086C570.455 70.3086 578.321 73.5086 583.388 73.1086L588.055 72.7086L585.255 69.2419L582.455 65.6419L589.521 58.8419C593.255 55.1086 597.521 52.0419 598.855 52.0419C600.055 52.0419 601.121 51.3752 601.121 50.7086C601.121 49.9086 602.588 49.3752 604.455 49.3752C606.321 49.3752 609.121 48.7086 610.855 47.7752C612.455 46.9752 614.721 45.9086 615.788 45.3752C616.855 44.8419 617.921 43.5086 618.188 42.3086C618.855 38.9752 609.388 37.9086 596.188 39.7752Z" fill="#0E0924"/>
<path d="M818.188 39.6419C819.121 40.0419 820.321 39.9086 820.721 39.5086C821.254 39.1086 820.454 38.7086 818.988 38.8419C817.521 38.8419 817.121 39.2419 818.188 39.6419Z" fill="#0E0924"/>
<path d="M793.788 45.3753C793.388 46.042 791.788 46.7086 790.321 46.7086C788.988 46.7086 787.788 47.242 787.788 48.042C787.788 48.7086 788.588 49.3753 789.655 49.3753C790.588 49.3753 792.188 50.3086 793.121 51.3753C795.255 53.9086 809.255 54.1753 813.121 51.7753C815.255 50.442 816.321 50.442 818.455 51.7753C822.055 54.042 829.121 53.9086 829.121 51.5086C829.121 49.242 826.321 48.042 821.121 48.042C819.121 48.042 814.855 47.1086 811.788 46.042C805.388 43.7753 794.988 43.3753 793.788 45.3753Z" fill="#0E0924"/>
<path d="M483.788 54.0419C483.788 55.5086 484.721 56.0419 486.855 55.7752C488.455 55.5086 489.788 54.7086 489.788 54.0419C489.788 53.2419 488.455 52.5752 486.855 52.3086C484.721 52.0419 483.788 52.5752 483.788 54.0419Z" fill="#0E0924"/>
<path d="M789.121 56.0419C789.121 56.7086 789.788 57.3752 790.454 57.3752C791.254 57.3752 791.788 56.7086 791.788 56.0419C791.788 55.2419 791.254 54.7086 790.454 54.7086C789.788 54.7086 789.121 55.2419 789.121 56.0419Z" fill="#0E0924"/>
<path d="M801.921 55.642C799.921 57.642 801.388 60.042 804.455 60.042C806.321 60.042 807.788 59.5087 807.788 58.7087C807.788 57.1087 803.121 54.5753 801.921 55.642Z" fill="#0E0924"/>
<path d="M590.721 62.9753C591.521 65.3753 594.454 65.7753 594.454 63.5086C594.454 62.3086 593.521 61.3753 592.321 61.3753C591.121 61.3753 590.454 62.042 590.721 62.9753Z" fill="#0E0924"/>
<path d="M902.855 68.8419C899.255 70.4419 901.388 72.1752 906.188 71.7752C908.855 71.5086 910.988 70.7086 910.855 70.0419C910.455 68.5752 905.388 67.7752 902.855 68.8419Z" fill="#0E0924"/>
<path d="M392.588 90.9753C391.254 91.642 387.388 92.042 383.921 91.642C377.254 90.842 373.121 92.3087 373.121 95.5087C373.121 98.442 383.788 108.042 387.121 108.042C390.188 108.042 404.054 100.042 404.721 97.9087C405.388 95.9087 400.988 91.1087 397.788 90.1753C396.321 89.7753 394.054 90.1753 392.588 90.9753Z" fill="#0E0924"/>
<path d="M233.121 104.042C233.121 104.709 234.321 105.375 235.788 105.375C237.254 105.375 238.454 104.709 238.454 104.042C238.454 103.242 237.254 102.709 235.788 102.709C234.321 102.709 233.121 103.242 233.121 104.042Z" fill="#0E0924"/>
<path d="M926.455 104.042C926.455 105.642 932.455 107.242 934.455 106.042C935.121 105.642 935.521 104.575 935.121 103.909C934.055 102.309 926.455 102.309 926.455 104.042Z" fill="#0E0924"/>
<path d="M417.121 110.042C417.121 112.709 417.654 113.509 419.521 113.109C420.721 112.842 421.788 111.509 421.788 110.042C421.788 108.575 420.721 107.242 419.521 106.975C417.654 106.575 417.121 107.375 417.121 110.042Z" fill="#0E0924"/>
<path d="M228.721 108.842C227.654 109.909 228.854 112.042 230.588 112.042C231.254 112.042 231.788 111.109 231.788 110.042C231.788 108.042 230.188 107.375 228.721 108.842Z" fill="#0E0924"/>
<path d="M431.788 116.709C431.788 120.442 434.988 121.242 436.321 117.909C437.655 114.442 437.255 113.375 434.455 113.375C432.455 113.375 431.788 114.309 431.788 116.709Z" fill="#0E0924"/>
<path d="M922.455 115.909C922.455 116.709 923.121 117.642 923.788 118.042C924.588 118.442 925.121 117.909 925.121 116.842C925.121 115.642 924.588 114.709 923.788 114.709C923.121 114.709 922.455 115.242 922.455 115.909Z" fill="#0E0924"/>
<path d="M868.055 129.509C868.321 130.442 869.388 131.509 870.321 131.775C871.388 132.175 871.921 131.642 871.521 130.575C871.255 129.642 870.188 128.575 869.255 128.309C868.188 127.909 867.655 128.442 868.055 129.509Z" fill="#0E0924"/>
<path d="M865.121 134.842C865.121 137.775 868.054 141.375 870.321 141.375C873.388 141.375 871.788 135.109 868.454 133.642C865.521 132.309 865.121 132.442 865.121 134.842Z" fill="#0E0924"/>
<path d="M804.454 141.242C802.054 142.175 802.054 142.309 804.188 143.509C805.788 144.442 806.854 147.242 807.388 152.042C807.921 157.242 807.788 158.842 806.721 158.175C804.854 156.975 804.588 162.442 806.321 165.242C807.921 167.775 810.321 165.909 809.521 162.709C808.988 160.975 809.654 159.242 810.988 158.309C813.254 156.575 813.121 154.709 809.654 141.642C809.121 139.909 808.321 139.775 804.454 141.242Z" fill="#0E0924"/>
<path d="M932.855 141.909C931.521 142.842 930.455 144.042 930.455 144.575C930.455 145.909 935.521 145.509 936.588 143.909C938.055 141.509 935.255 140.042 932.855 141.909Z" fill="#0E0924"/>
<path d="M884.454 143.909C883.654 145.375 888.854 148.709 890.054 147.509C890.988 146.575 887.921 142.709 886.321 142.709C885.788 142.709 884.988 143.242 884.454 143.909Z" fill="#0E0924"/>
<path d="M918.455 146.709C918.455 148.442 919.921 148.442 922.455 146.709C924.055 145.642 923.921 145.375 921.521 145.375C919.788 145.375 918.455 145.909 918.455 146.709Z" fill="#0E0924"/>
<path d="M898.455 148.042C898.455 148.709 899.921 149.375 901.788 149.375C903.655 149.375 905.121 148.709 905.121 148.042C905.121 147.242 903.655 146.709 901.788 146.709C899.921 146.709 898.455 147.242 898.455 148.042Z" fill="#0E0924"/>
<path d="M911.521 148.975C912.454 149.375 913.654 149.242 914.054 148.842C914.588 148.442 913.788 148.042 912.321 148.175C910.854 148.175 910.454 148.575 911.521 148.975Z" fill="#0E0924"/>
<path d="M830.054 163.642C829.521 164.042 829.121 165.375 829.121 166.309C829.121 167.909 829.521 167.909 831.121 166.175C832.188 165.109 833.121 163.909 833.121 163.509C833.121 162.442 831.121 162.575 830.054 163.642Z" fill="#0E0924"/>
<path d="M820.588 170.309C819.788 172.175 819.921 172.309 821.254 171.109C822.188 170.175 822.588 169.109 822.188 168.709C821.788 168.309 820.988 168.975 820.588 170.309Z" fill="#0E0924"/>
<path d="M805.121 172.709C805.121 173.775 803.921 175.375 802.455 176.309C800.455 177.642 799.788 179.509 799.788 183.642C799.788 187.242 798.988 189.909 797.655 190.975C796.455 191.909 794.055 194.042 792.321 195.642C790.455 197.375 787.921 198.709 786.588 198.709C785.255 198.709 781.655 200.575 778.588 202.709C773.788 206.175 773.255 207.109 774.455 209.375C776.055 212.442 778.455 212.842 778.455 210.175C778.455 208.175 782.188 206.442 787.788 206.042C789.655 205.775 794.055 204.842 797.788 203.909C804.988 201.909 804.188 203.242 807.388 187.509C807.788 185.375 810.188 181.775 812.588 179.509C817.921 174.575 818.188 173.375 813.921 173.375C812.055 173.375 810.188 172.709 809.788 172.042C808.455 170.042 805.121 170.442 805.121 172.709Z" fill="#0E0924"/>
<path d="M363.788 190.709C363.788 191.375 364.455 192.042 365.121 192.042C365.921 192.042 366.455 191.375 366.455 190.709C366.455 189.909 365.921 189.375 365.121 189.375C364.455 189.375 363.788 189.909 363.788 190.709Z" fill="#0E0924"/>
<path d="M369.121 192.709C369.121 193.909 369.788 194.709 370.588 194.442C371.388 194.175 372.054 193.375 372.054 192.709C372.054 192.042 371.388 191.242 370.588 190.975C369.788 190.709 369.121 191.509 369.121 192.709Z" fill="#0E0924"/>
<path d="M769.388 222.042C766.455 224.975 766.321 228.042 769.121 228.042C770.055 228.042 774.455 220.709 774.455 219.109C774.455 217.909 772.188 219.242 769.388 222.042Z" fill="#0E0924"/>
<path d="M758.721 230.842C758.988 231.642 759.788 232.175 760.455 232.175C761.121 232.175 761.921 231.642 762.188 230.842C762.455 230.042 761.655 229.375 760.455 229.375C759.255 229.375 758.455 230.042 758.721 230.842Z" fill="#0E0924"/>
<path d="M220.188 234.042C217.788 235.109 215.788 236.709 215.788 237.775C215.788 240.175 220.588 241.509 224.854 240.442C229.654 239.242 234.721 242.575 233.788 246.309C232.854 250.042 237.654 253.375 238.988 249.909C239.388 248.709 239.521 247.242 238.988 246.575C238.588 245.909 239.121 245.375 240.188 245.375C241.254 245.375 242.454 246.175 242.854 247.242C244.321 250.975 259.788 250.975 259.788 247.242C259.788 245.109 253.788 240.842 252.054 241.909C251.388 242.309 249.788 241.242 248.454 239.642C246.854 237.775 245.788 237.375 245.388 238.442C244.588 240.842 242.988 240.442 234.188 236.042C225.254 231.509 225.788 231.509 220.188 234.042Z" fill="#0E0924"/>
<path d="M261.921 247.375C261.521 248.575 262.055 249.775 263.255 250.309C265.788 251.242 268.455 248.842 267.255 246.842C265.921 244.709 262.855 245.109 261.921 247.375Z" fill="#0E0924"/>
<path d="M748.988 248.975C748.188 250.975 747.921 254.975 748.321 257.642C748.988 261.775 748.455 263.375 744.455 268.575L739.788 274.709L744.055 277.375C749.521 280.709 751.788 280.709 751.921 277.642C751.921 275.642 752.055 275.642 752.988 277.909C753.788 279.909 754.321 280.042 754.988 278.842C755.788 277.642 756.721 277.909 758.588 279.909C762.055 283.509 764.321 283.375 766.321 279.509C767.788 276.975 767.788 275.242 766.455 271.242C763.788 262.309 761.121 257.642 758.855 257.109C757.255 256.842 756.588 255.242 756.588 251.375C756.455 246.842 755.921 245.909 753.521 245.642C751.255 245.242 750.055 246.175 748.988 248.975Z" fill="#0E0924"/>
<path d="M371.788 250.709C371.788 252.575 374.721 258.709 375.788 258.709C377.255 258.709 379.788 255.509 379.788 253.642C379.788 252.442 378.988 252.042 377.788 252.575C376.588 252.975 375.388 252.442 374.988 251.375C374.055 249.109 371.788 248.709 371.788 250.709Z" fill="#0E0924"/>
<path d="M276.588 254.975C277.121 256.709 277.521 259.509 277.388 261.242C277.121 264.309 277.255 264.442 278.855 262.042C280.321 260.175 280.455 258.709 279.255 255.775C277.655 251.375 275.121 250.709 276.588 254.975Z" fill="#0E0924"/>
<path d="M676.588 262.042C676.188 263.109 676.455 265.375 677.121 266.975L678.321 270.042V267.109C678.455 265.509 679.121 263.775 679.788 263.375C681.788 262.175 681.388 260.042 679.255 260.042C678.188 260.042 677.121 260.975 676.588 262.042Z" fill="#0E0924"/>
<path d="M575.788 263.509C575.788 264.709 576.455 265.375 577.388 265.109C579.788 264.309 580.188 261.375 577.921 261.375C576.721 261.375 575.788 262.309 575.788 263.509Z" fill="#0E0924"/>
<path d="M244.188 264.842C241.788 265.909 239.788 267.375 239.788 268.042C239.788 268.842 238.721 269.909 237.521 270.309C233.121 272.042 231.655 274.309 233.788 276.042C237.255 278.975 236.321 285.642 231.788 289.375C228.321 292.175 227.521 294.175 226.321 301.909C224.988 310.309 225.121 311.375 227.655 314.575C229.121 316.442 231.921 321.375 233.921 325.642C237.655 333.775 242.188 338.575 248.455 341.509C252.188 343.242 252.455 343.909 252.855 352.042C253.121 356.842 252.588 364.309 251.655 368.709C250.855 373.109 249.921 379.375 249.655 382.442C249.255 385.642 248.321 389.642 247.521 391.109C246.055 393.909 245.521 396.309 243.121 414.709C242.588 418.709 241.655 422.575 241.121 423.375C240.455 424.042 240.321 429.509 240.588 435.375C241.255 447.509 242.988 450.975 251.255 455.642C257.388 459.242 262.455 459.509 267.788 456.709C272.588 454.309 272.988 452.042 268.855 452.042C264.588 452.042 262.855 450.575 261.121 446.175C260.055 443.109 260.188 441.375 261.788 437.775C262.988 435.375 264.455 433.375 264.988 433.375C267.121 433.375 267.788 429.375 266.188 426.842C264.988 424.842 265.121 423.909 266.855 422.042C268.055 420.842 269.121 419.109 269.121 418.042C269.121 417.109 269.521 416.042 270.188 415.775C271.655 415.109 277.121 406.975 277.121 405.509C277.121 404.709 279.521 403.642 282.588 403.242C288.321 402.309 292.721 397.775 291.255 394.042C290.721 392.709 291.388 392.042 293.255 392.042C297.788 392.042 310.721 376.175 312.588 368.309C313.921 362.975 316.988 360.042 322.321 359.242C324.988 358.842 328.055 357.775 329.121 356.975C332.721 354.175 335.921 346.975 336.721 339.775C337.388 334.709 338.988 330.709 342.721 325.375C345.521 321.375 347.788 316.842 347.788 315.375C347.788 312.175 344.188 306.709 342.188 306.709C341.388 306.709 339.655 305.775 338.321 304.575C336.988 303.375 333.388 301.909 330.188 301.242C326.988 300.575 323.255 299.509 321.788 298.842C320.321 298.175 317.388 297.242 315.388 296.709C312.988 296.309 310.855 294.442 309.388 291.642C305.521 284.442 299.121 278.709 294.855 278.709C290.588 278.709 279.788 271.375 279.788 268.442C279.788 266.709 276.055 266.175 267.521 266.575C264.721 266.842 261.255 266.042 259.521 264.842C255.921 262.309 249.921 262.309 244.188 264.842Z" fill="#0E0924"/>
<path d="M678.455 276.042C678.455 276.709 679.121 277.375 679.788 277.375C680.588 277.375 681.121 276.709 681.121 276.042C681.121 275.242 680.588 274.709 679.788 274.709C679.121 274.709 678.455 275.242 678.455 276.042Z" fill="#0E0924"/>
<path d="M683.788 282.042C683.788 283.109 684.988 284.709 686.455 285.642C688.055 286.709 689.121 288.842 689.121 290.842C689.121 293.242 689.921 294.575 691.788 295.109C693.521 295.509 694.188 296.575 693.655 297.775C693.121 299.109 695.255 301.642 700.321 305.242C708.321 311.242 711.788 312.042 711.788 308.175C711.788 306.709 712.188 304.709 712.588 303.509C713.121 302.042 712.588 301.375 710.721 301.375C708.988 301.375 707.388 299.909 706.188 297.375C705.255 295.109 702.588 292.442 700.321 291.375C698.055 290.309 694.188 287.375 691.655 284.709C686.855 279.775 683.788 278.709 683.788 282.042Z" fill="#0E0924"/>
<path d="M737.788 284.042C736.588 286.442 734.321 288.175 731.521 288.842C729.121 289.375 726.721 290.042 726.188 290.175C725.521 290.309 723.921 290.442 722.588 290.575C718.721 290.842 718.188 294.575 721.121 299.375C724.321 304.442 726.055 305.375 733.121 305.375C737.788 305.375 738.455 304.975 741.655 298.709C743.655 294.842 744.588 291.909 743.788 291.375C742.988 290.842 742.588 288.442 742.855 286.042C743.521 280.042 740.455 278.842 737.788 284.042Z" fill="#0E0924"/>
<path d="M717.121 286.042C717.121 287.109 717.788 288.042 718.454 288.042C719.254 288.042 719.788 287.109 719.788 286.042C719.788 284.975 719.254 284.042 718.454 284.042C717.788 284.042 717.121 284.975 717.121 286.042Z" fill="#0E0924"/>
<path d="M764.588 285.242C764.055 286.175 763.921 287.242 764.321 287.642C765.521 288.842 766.855 287.109 766.188 285.242C765.655 283.775 765.388 283.775 764.588 285.242Z" fill="#0E0924"/>
<path d="M710.455 288.175C710.455 288.842 711.121 289.109 711.788 288.709C712.588 288.309 713.121 287.642 713.121 287.242C713.121 286.975 712.588 286.709 711.788 286.709C711.121 286.709 710.455 287.375 710.455 288.175Z" fill="#0E0924"/>
<path d="M768.721 290.309C767.254 291.642 767.654 300.042 769.121 300.042C769.921 300.042 771.121 298.575 771.788 296.709C773.654 291.909 771.521 287.509 768.721 290.309Z" fill="#0E0924"/>
<path d="M750.188 293.109C747.388 293.642 745.655 303.242 747.655 308.042C748.455 310.175 748.988 310.575 748.988 309.109C749.121 305.909 751.921 304.575 753.388 307.242C755.255 310.442 757.388 308.442 755.655 305.242C754.855 303.775 754.588 301.642 754.988 300.575C755.521 299.375 754.721 298.709 752.988 298.709C748.455 298.709 750.988 295.375 755.921 294.975C758.455 294.709 760.855 294.042 761.388 293.509C762.455 292.575 754.588 292.309 750.188 293.109Z" fill="#0E0924"/>
<path d="M198.054 295.509C196.588 296.975 198.721 300.042 201.254 300.042C204.188 300.042 204.454 298.575 202.188 296.309C200.454 294.575 199.254 294.309 198.054 295.509Z" fill="#0E0924"/>
<path d="M775.788 297.909C775.788 299.109 776.321 300.042 776.988 300.042C777.655 300.042 778.055 301.909 777.788 304.175C777.255 307.642 777.521 308.042 779.121 306.709C780.588 305.509 781.121 305.509 781.121 306.575C781.121 307.375 782.721 308.042 784.855 308.042C788.055 308.175 788.188 308.309 786.188 309.909C784.855 310.842 783.788 312.309 783.788 313.242C783.788 315.375 787.788 314.975 788.588 312.709C789.921 309.375 793.121 310.442 793.921 314.442C794.588 317.775 795.655 318.575 801.388 320.042C806.855 321.375 808.588 321.375 811.255 319.909C814.055 318.442 814.855 318.575 817.521 320.975C822.455 325.509 831.788 326.042 831.788 321.909C831.788 320.842 832.721 320.042 833.788 320.042C834.855 320.042 835.788 319.642 835.788 318.975C835.788 318.442 833.388 317.909 830.321 317.909C824.321 317.642 819.521 314.709 825.255 314.709C826.988 314.709 829.655 313.775 830.988 312.709C834.855 309.775 836.188 310.175 841.255 315.375C844.188 318.442 846.588 319.775 848.188 319.242C849.655 318.842 850.455 319.242 850.455 320.575C850.455 321.775 851.388 322.709 852.588 322.709C854.321 322.709 854.455 323.109 853.121 324.709C851.788 326.309 851.921 326.842 853.921 327.509C855.388 328.042 857.121 328.842 857.788 329.109C858.588 329.509 858.321 328.975 857.388 327.775C855.921 325.909 856.055 325.509 858.455 324.709C861.121 323.909 861.121 323.642 859.255 321.509C858.055 320.175 857.121 318.575 857.121 317.775C857.121 316.975 855.255 315.775 852.855 315.375C850.588 314.842 845.121 311.909 840.855 308.842C829.121 300.709 826.721 299.375 825.521 300.575C824.988 301.109 825.521 302.309 826.855 303.242C830.188 305.775 829.655 307.775 825.255 308.709C822.321 309.375 819.921 308.709 815.921 306.175C808.455 301.509 800.588 298.975 791.121 298.175C786.721 297.909 781.521 297.242 779.521 296.709C776.588 295.909 775.788 296.175 775.788 297.909Z" fill="#0E0924"/>
<path d="M816.721 300.842C815.521 302.175 816.988 304.042 819.255 304.042C820.321 304.042 821.121 303.109 821.121 302.042C821.121 300.042 818.321 299.242 816.721 300.842Z" fill="#0E0924"/>
<path d="M767.521 304.975C769.121 305.242 771.788 305.242 773.521 304.975C775.121 304.709 773.788 304.442 770.454 304.442C767.121 304.442 765.788 304.709 767.521 304.975Z" fill="#0E0924"/>
<path d="M713.388 313.509C713.788 314.575 717.254 315.909 722.188 316.709C726.588 317.375 730.721 318.442 731.254 318.975C731.788 319.642 734.054 320.042 736.188 320.042C738.454 320.042 744.054 321.375 748.721 322.975L757.254 325.775L762.854 322.709C765.921 320.975 769.121 319.109 769.788 318.442C771.788 316.575 766.721 313.242 763.921 314.575C758.454 317.375 753.388 318.042 747.788 317.109C744.454 316.442 736.721 315.375 730.454 314.842C724.188 314.175 717.654 313.242 715.921 312.709C713.521 311.909 712.854 312.042 713.388 313.509Z" fill="#0E0924"/>
<path d="M776.188 315.375C773.654 318.175 774.054 318.975 777.388 318.442C779.121 318.175 780.588 316.975 780.854 315.642C781.388 312.975 778.454 312.709 776.188 315.375Z" fill="#0E0924"/>
<path d="M866.988 322.842C866.588 323.642 866.988 324.842 867.921 325.509C870.855 327.375 871.788 326.975 871.788 324.042C871.788 321.242 868.588 320.442 866.988 322.842Z" fill="#0E0924"/>
<path d="M833.121 324.042C833.121 325.775 836.854 327.375 838.188 326.175C838.588 325.642 838.188 324.709 837.121 324.042C834.454 322.309 833.121 322.442 833.121 324.042Z" fill="#0E0924"/>
<path d="M774.188 328.175C772.988 331.642 772.321 332.042 769.254 331.375C764.854 330.442 755.654 336.575 752.588 342.309C751.254 344.975 748.988 346.575 744.321 347.909C734.054 350.842 730.854 353.775 730.188 360.309C729.788 364.575 730.454 367.509 732.721 371.775C734.988 375.775 735.788 379.242 735.654 383.509C735.121 392.442 736.054 392.842 753.788 389.909C756.721 389.509 759.921 388.175 760.721 386.975C762.721 384.575 774.588 382.442 776.454 384.175C777.121 384.842 778.454 385.375 779.521 385.375C780.454 385.375 784.054 387.642 787.254 390.309C790.588 393.109 793.921 395.242 794.721 394.975C795.521 394.709 797.521 395.775 799.121 397.375C800.721 398.975 804.988 400.575 808.988 401.242C812.721 401.775 816.188 402.709 816.588 403.109C817.121 403.509 818.321 402.975 819.388 401.909C820.588 400.842 822.321 400.175 823.521 400.709C826.321 401.775 828.854 399.109 830.454 393.242C831.254 390.442 832.721 387.375 833.654 386.309C838.721 381.375 840.054 358.175 835.388 358.575C832.588 358.842 831.788 358.575 831.788 356.709C831.788 355.775 830.988 354.309 830.054 353.775C829.121 353.242 827.388 351.109 826.054 348.975C824.721 346.975 822.854 345.375 821.921 345.375C820.854 345.375 817.521 340.975 814.588 335.509C811.654 330.042 808.588 325.109 807.788 324.709C806.321 323.775 803.254 330.175 803.521 333.375C803.654 334.442 803.254 336.175 802.588 337.242C801.521 338.842 800.721 338.975 797.921 337.642C795.121 336.442 794.454 335.109 794.454 331.509C794.454 327.109 794.188 326.842 787.788 325.509C777.254 323.242 775.788 323.509 774.188 328.175Z" fill="#0E0924"/>
<path d="M560.054 330.975C557.788 333.375 554.721 336.442 553.254 337.775C551.521 339.375 550.454 342.975 549.921 349.375C548.721 360.575 550.188 364.042 555.921 364.042C559.121 364.042 560.188 363.242 561.921 358.975C563.121 356.309 564.588 352.975 565.254 351.775C565.921 350.442 566.454 348.309 566.454 346.842C566.454 345.509 567.388 342.309 568.454 339.642C569.921 335.909 570.054 334.175 568.721 330.842C566.854 325.642 565.254 325.642 560.054 330.975Z" fill="#0E0924"/>
<path d="M863.121 329.375C863.521 330.042 864.188 330.709 864.588 330.709C864.854 330.709 865.121 330.042 865.121 329.375C865.121 328.575 864.454 328.042 863.654 328.042C862.988 328.042 862.721 328.575 863.121 329.375Z" fill="#0E0924"/>
<path d="M870.054 330.709C867.654 334.175 866.988 338.709 868.988 338.709C869.654 338.709 870.454 339.775 870.988 340.975C871.388 342.309 872.188 344.175 872.588 345.109C872.988 346.042 872.588 346.575 871.521 346.442C870.588 346.175 869.921 346.842 870.188 347.642C870.588 349.775 869.788 349.775 866.454 347.775C862.321 345.109 860.054 348.309 863.654 351.909C865.254 353.509 866.454 355.375 866.454 356.175C866.454 357.109 867.388 357.242 868.854 356.709C870.054 356.175 872.188 355.375 873.521 355.109C875.388 354.575 875.788 353.509 875.254 351.242C874.588 348.575 874.988 348.042 877.254 348.042C879.388 348.042 879.788 347.509 879.121 345.642C878.588 344.442 877.654 341.642 876.988 339.642C876.454 337.509 875.388 335.109 874.588 334.309C873.921 333.375 873.121 331.509 872.854 330.042C872.454 327.509 872.321 327.509 870.054 330.709Z" fill="#0E0924"/>
<path d="M887.788 336.042C887.788 336.709 888.455 337.375 889.121 337.375C889.921 337.375 890.455 336.709 890.455 336.042C890.455 335.242 889.921 334.709 889.121 334.709C888.455 334.709 887.788 335.242 887.788 336.042Z" fill="#0E0924"/>
<path d="M900.054 338.709C896.454 341.775 896.321 344.842 899.788 346.709C902.054 347.909 902.454 347.775 902.454 345.642C902.454 344.175 903.788 342.175 905.388 341.109C908.321 339.109 908.321 339.109 905.788 337.642C903.654 336.575 902.454 336.842 900.054 338.709Z" fill="#0E0924"/>
<path d="M580.455 350.709C580.055 351.375 580.321 352.042 580.988 352.042C581.788 352.042 582.455 351.375 582.455 350.709C582.455 349.909 582.188 349.375 581.921 349.375C581.521 349.375 580.855 349.909 580.455 350.709Z" fill="#0E0924"/>
<path d="M885.121 389.242C885.121 390.709 886.188 393.642 887.521 395.909C889.388 399.375 889.521 400.309 887.921 401.242C886.588 402.175 886.454 402.842 887.788 404.842C889.121 406.975 889.254 406.975 888.588 404.975C887.521 401.375 890.188 402.309 892.188 406.309L894.054 409.909L895.654 406.842C896.588 405.242 897.788 404.309 898.588 404.709C899.254 405.242 900.454 403.909 901.121 402.042C902.854 397.375 902.988 397.375 899.121 397.375C896.988 397.375 894.988 396.042 893.521 393.642C888.854 386.442 885.121 384.442 885.121 389.242Z" fill="#0E0924"/>
<path d="M809.121 405.242C809.121 405.909 810.321 409.242 811.921 412.575C814.454 418.309 814.988 418.842 818.854 418.442C822.721 418.042 823.121 417.642 823.521 412.842C823.788 410.042 823.654 406.842 823.121 405.775C822.454 403.909 822.188 403.909 820.054 405.775C818.054 407.509 817.388 407.642 815.254 405.909C812.321 403.775 809.121 403.375 809.121 405.242Z" fill="#0E0924"/>
<path d="M884.455 410.575C883.388 412.442 875.788 416.042 873.121 416.042C871.788 416.042 870.055 417.775 869.121 420.175C867.521 423.775 867.655 424.575 870.055 426.975C873.655 430.575 878.055 429.109 880.588 423.642C881.521 421.242 883.921 417.509 885.788 415.375C887.655 413.109 889.121 410.975 889.121 410.309C889.121 408.975 885.388 409.109 884.455 410.575Z" fill="#0E0924"/>
<path d="M895.788 413.375C895.788 414.042 896.455 414.709 897.121 414.709C897.921 414.709 898.455 414.042 898.455 413.375C898.455 412.575 897.921 412.042 897.121 412.042C896.455 412.042 895.788 412.575 895.788 413.375Z" fill="#0E0924"/>
<path d="M913.121 418.042C913.121 419.109 913.788 420.042 914.454 420.042C915.254 420.042 915.788 419.109 915.788 418.042C915.788 416.975 915.254 416.042 914.454 416.042C913.788 416.042 913.121 416.975 913.121 418.042Z" fill="#0E0924"/>
<path d="M278.988 442.842C277.655 445.242 280.721 447.109 284.321 446.175C289.255 444.975 288.855 441.375 283.921 441.375C281.655 441.375 279.521 442.042 278.988 442.842Z" fill="#0E0924"/>
</svg>
